<svg width="29" height="29" viewBox="0 0 29 29" fill="none" xmlns="http://www.w3.org/2000/svg">
<path d="M6.65595 15.2147C6.65466 15.2078 6.65349 15.2007 6.65244 15.1937L5.17814 6.34786C5.03247 5.47389 4.27632 4.83333 3.3903 4.83333H3.02085C2.68718 4.83333 2.41669 4.56284 2.41669 4.22917C2.41669 3.89549 2.68718 3.625 3.02085 3.625H3.3903C4.83041 3.625 6.06468 4.64035 6.35012 6.04167H25.9792C26.3806 6.04167 26.6704 6.42586 26.5601 6.81181L24.1434 15.2701C24.0693 15.5295 23.8323 15.7083 23.5625 15.7083H7.96322L8.11357 16.6105C8.25923 17.4844 9.01539 18.125 9.90141 18.125H23.5625C23.8962 18.125 24.1667 18.3955 24.1667 18.7292C24.1667 19.0628 23.8962 19.3333 23.5625 19.3333H9.90141C8.42471 19.3333 7.16445 18.2657 6.92168 16.8091L6.65595 15.2147ZM6.55349 7.25L7.76183 14.5H23.1068L25.1782 7.25H6.55349ZM9.66669 25.375C8.332 25.375 7.25002 24.293 7.25002 22.9583C7.25002 21.6236 8.332 20.5417 9.66669 20.5417C11.0014 20.5417 12.0834 21.6236 12.0834 22.9583C12.0834 24.293 11.0014 25.375 9.66669 25.375ZM9.66669 24.1667C10.334 24.1667 10.875 23.6257 10.875 22.9583C10.875 22.291 10.334 21.75 9.66669 21.75C8.99934 21.75 8.45835 22.291 8.45835 22.9583C8.45835 23.6257 8.99934 24.1667 9.66669 24.1667ZM20.5417 25.375C19.207 25.375 18.125 24.293 18.125 22.9583C18.125 21.6236 19.207 20.5417 20.5417 20.5417C21.8764 20.5417 22.9584 21.6236 22.9584 22.9583C22.9584 24.293 21.8764 25.375 20.5417 25.375ZM20.5417 24.1667C21.209 24.1667 21.75 23.6257 21.75 22.9583C21.75 22.291 21.209 21.75 20.5417 21.75C19.8743 21.75 19.3334 22.291 19.3334 22.9583C19.3334 23.6257 19.8743 24.1667 20.5417 24.1667Z" fill="#434343"/>
</svg>
